# xmcd
#
# Track frame offsets:
#	150
#	16835
#	34450
#	51332
#	64622
#	83100
#	110072
#	145385
#	159455
#	176415
#	191170
#	209242
#	240830
#	253230
#
# Disc length: 3616 seconds
#
# Revision: 1
# Processed by: cddbd v1.5.1PL0 Copyright (c) Steve Scherf et al.
# Submitted via: CDex 1.50Beta5
#
DISCID=cc0e1e0e
DTITLE=パーフェクト・オールスターズ - ファッション通信
DYEAR=1999
DGENRE=
TTITLE0=パーフェクト・オールスターズ/リーチ・アップ
TTITLE1=ファティマ・レイニー/ラブ・イズ・ア・ワンダフル・シング
TTITLE2=ナチュラル・ボーン・スリラーズ/ロック・ザ・ファンキー・ビート
TTITLE3=エイフェックス・ツイン/フィルム
TTITLE4=ジュリー・クルーズ/ジス・イズ・アワ・ナイト
TTITLE5=グレース/ノット・オーバー・イェット
TTITLE6=B-52’S/グッド・スタッフ
TTITLE7=ベター・ザン・エズラ/ハッピー・デイ・ママ
TTITLE8=ステレオラブ/パーコレイター
TTITLE9=トム・ウェイツ/ホイッスリン・パスト・ザ・グレイブヤード
TTITLE10=モービー/ゴー
TTITLE11=バンゲリス/ボイシズ
TTITLE12=ミッチェル・フルーム/オーバーキャスト
TTITLE13=TSHIHIKO MORI/My First Planet
EXTD=
EXTT0=
EXTT1=
EXTT2=
EXTT3=
EXTT4=
EXTT5=
EXTT6=
EXTT7=
EXTT8=
EXTT9=
EXTT10=
EXTT11=
EXTT12=
EXTT13=
PLAYORDER=
